<?xml version="1.0" encoding="utf-8"?>
<!-- Generator: Adobe Illustrator 16.0.3, SVG Export Plug-In . SVG Version: 6.00 Build 0)  -->
<!DOCTYPE svg PUBLIC "-//W3C//DTD SVG 1.1//EN" "http://www.w3.org/Graphics/SVG/1.1/DTD/svg11.dtd">
<svg version="1.1" id="Calque_1" xmlns="http://www.w3.org/2000/svg" xmlns:xlink="http://www.w3.org/1999/xlink" x="0px" y="0px"
	 width="328px" height="182px" viewBox="0 0 328 182" enable-background="new 0 0 328 182" xml:space="preserve">
<g>
	<g>
		<path fill="#006B37" d="M32.76,138.737v-14.189h4.014l3.77,9.836h0.046v-9.836h2.779v14.189h-3.918l-3.882-10.373H35.54v10.373
			H32.76z"/>
		<path fill="#006B37" d="M47.289,131.651c0-3.75,0-7.33,4.9-7.33c4.881,0,4.881,3.58,4.881,7.33c0,3.713,0,7.332-4.881,7.332
			C47.289,138.983,47.289,135.364,47.289,131.651z M54.073,131.651c0-3.637-0.217-5.219-1.884-5.219
			c-1.679,0-1.885,1.582-1.885,5.219s0.206,5.201,1.885,5.201C53.856,136.853,54.073,135.288,54.073,131.651z"/>
		<path fill="#006B37" d="M70.59,124.548v10.063c0,2.119-1.198,4.373-4.814,4.373c-3.26,0-4.834-1.697-4.834-4.373v-10.063h2.967
			v9.873c0,1.754,0.755,2.432,1.83,2.432c1.3,0,1.884-0.867,1.884-2.432v-9.873H70.59z"/>
		<path fill="#006B37" d="M77.486,138.737h-2.967v-14.189h5.492c2.026,0,3.306,1.318,3.306,3.713c0,1.826-0.695,3.164-2.626,3.486
			v0.037c0.649,0.074,2.571,0.227,2.571,2.787c0,0.906,0.055,3.582,0.339,4.166h-2.91c-0.387-0.867-0.312-1.828-0.312-2.752
			c0-1.678,0.162-3.109-2.128-3.109h-0.764V138.737z M77.486,130.69h1.32c1.176,0,1.506-1.186,1.506-2.092
			c0-1.355-0.565-1.865-1.506-1.865h-1.32V130.69z"/>
		<path fill="#006B37" d="M89.99,138.737h-2.97v-14.189h5.474c2.035,0,3.335,1.318,3.335,3.713c0,1.826-0.715,3.164-2.638,3.486
			v0.037c0.64,0.074,2.573,0.227,2.573,2.787c0,0.906,0.064,3.582,0.33,4.166h-2.903c-0.396-0.867-0.321-1.828-0.321-2.752
			c0-1.678,0.171-3.109-2.128-3.109H89.99V138.737z M89.99,130.69h1.317c1.169,0,1.508-1.186,1.508-2.092
			c0-1.355-0.564-1.865-1.508-1.865H89.99V130.69z"/>
		<path fill="#006B37" d="M99.581,138.737v-14.189h2.958v14.189H99.581z"/>
		<path fill="#006B37" d="M109.511,138.737h-2.967v-14.189h5.492c2.015,0,3.317,1.318,3.317,3.713c0,1.826-0.718,3.164-2.64,3.486
			v0.037c0.66,0.074,2.574,0.227,2.574,2.787c0,0.906,0.066,3.582,0.348,4.166h-2.921c-0.376-0.867-0.301-1.828-0.301-2.752
			c0-1.678,0.151-3.109-2.128-3.109h-0.773V138.737z M109.511,130.69h1.32c1.187,0,1.515-1.186,1.515-2.092
			c0-1.355-0.573-1.865-1.515-1.865h-1.32V130.69z"/>
		<path fill="#006B37" d="M134.629,124.548v10.063c0,2.119-1.204,4.373-4.823,4.373c-3.26,0-4.823-1.697-4.823-4.373v-10.063h2.968
			v9.873c0,1.754,0.744,2.432,1.818,2.432c1.3,0,1.884-0.867,1.884-2.432v-9.873H134.629z"/>
		<path fill="#006B37" d="M138.645,138.737v-14.189h4.004l3.767,9.836h0.04v-9.836h2.76v14.189h-3.9l-3.873-10.373h-0.047v10.373
			H138.645z"/>
		<path fill="#E40521" d="M159.579,138.737V119.62h6.436l3.005,12.992h0.038l3.185-12.992h6.218v19.117h-3.882v-14.756h-0.056
			l-3.685,14.756h-3.816l-3.494-14.756h-0.066v14.756H159.579z"/>
		<path fill="#E40521" d="M183.66,129.185c0-5.07,0-9.875,6.595-9.875c6.596,0,6.596,4.805,6.596,9.875c0,4.992,0,9.873-6.596,9.873
			C183.66,139.058,183.66,134.177,183.66,129.185z M192.8,129.185c0-4.9-0.281-7.029-2.545-7.029c-2.241,0-2.533,2.129-2.533,7.029
			c0,4.898,0.292,7.018,2.533,7.018C192.519,136.202,192.8,134.083,192.8,129.185z"/>
		<path fill="#E40521" d="M202.183,138.737V119.62h5.411l5.077,13.238h0.047V119.62h3.749v19.117h-5.274l-5.22-13.982h-0.058v13.982
			H202.183z"/>
		<path fill="#E40521" d="M222.025,119.62h6.671c5.239,0,6.219,3.477,6.219,9.451c0,2.939,0.454,9.666-6.378,9.666h-6.512V119.62z
			 M226.021,135.798h1.942c2.43,0,2.901-1.828,2.901-6.613c0-3.533,0-6.625-2.771-6.625h-2.073V135.798z"/>
		<path fill="#E40521" d="M240.247,138.737V119.62h10.44v2.939h-6.434v4.703h5.926v2.938h-5.926v5.598h6.642v2.939H240.247z"/>
		<path fill="#006B37" d="M145.549,152.325h4.948c3.899,0,4.615,2.578,4.615,7.008c0,2.186,0.339,7.172-4.729,7.172h-4.835V152.325z
			 M148.517,164.319h1.433c1.81,0,2.157-1.359,2.157-4.91c0-2.621,0-4.92-2.063-4.92h-1.526V164.319z"/>
		<path fill="#006B37" d="M159.069,166.505v-14.18h7.735v2.164h-4.776v3.506h4.409v2.178h-4.409v4.146h4.938v2.186H159.069z"/>
		<path fill="#C7D530" d="M176.859,147.97h6.453c5.087,0,6.039,3.393,6.039,9.158c0,2.854,0.435,9.377-6.198,9.377h-6.294V147.97z
			 M180.722,163.649h1.876c2.362,0,2.816-1.771,2.816-6.408c0-3.41,0-6.416-2.695-6.416h-1.997V163.649z"/>
		<path fill="#C7D530" d="M194.505,166.505V147.97h3.873v18.535H194.505z"/>
		<path fill="#C7D530" d="M202.194,147.97h4.023l2.882,13.482h0.057l3.223-13.482h3.834l-4.908,18.535h-4.542L202.194,147.97z"/>
		<path fill="#C7D530" d="M219.993,166.505V147.97h10.118v2.855h-6.238v4.57h5.749v2.846h-5.749v5.408h6.436v2.855H219.993z"/>
		<path fill="#C7D530" d="M238.684,166.505h-3.862V147.97h7.143c2.655,0,4.334,1.697,4.334,4.844c0,2.375-0.915,4.146-3.431,4.561
			v0.057c0.849,0.094,3.355,0.301,3.355,3.637c0,1.168,0.075,4.674,0.442,5.438h-3.798c-0.507-1.133-0.414-2.385-0.414-3.59
			c0-2.215,0.208-4.092-2.771-4.092h-0.999V166.505z M238.684,155.978h1.715c1.527,0,1.979-1.533,1.979-2.713
			c0-1.771-0.753-2.439-1.979-2.439h-1.715V155.978z"/>
		<path fill="#C7D530" d="M256.236,166.813c-4.814,0-5.7-2.824-5.501-6.039h3.871c0,1.781,0.075,3.252,2.224,3.252
			c1.3,0,1.942-0.84,1.942-2.094c0-3.334-7.802-3.541-7.802-9.064c0-2.883,1.375-5.207,6.105-5.207c3.77,0,5.643,1.705,5.388,5.576
			h-3.767c0-1.385-0.226-2.797-1.792-2.797c-1.262,0-2.015,0.686-2.015,1.969c0,3.531,7.802,3.213,7.802,9.043
			C262.692,166.249,259.187,166.813,256.236,166.813z"/>
		<path fill="#C7D530" d="M267.516,166.505V147.97h3.871v18.535H267.516z"/>
		<path fill="#C7D530" d="M287.734,147.97v3.082h-4.315v15.453h-3.862v-15.453h-4.314v-3.082H287.734z"/>
		<path fill="#C7D530" d="M291.588,166.505V147.97h10.11v2.855h-6.236v4.57h5.746v2.846h-5.746v5.408h6.444v2.855H291.588z
			 M299.955,142.411l-4.1,3.666h-1.676l2.308-3.666H299.955z"/>
	</g>
	<g>
		<g>
			<path fill="#006B37" d="M115.672,19.344c-1.054-0.378-2.316-0.867-3.636-0.867c-3.26,0-5.391,2.299-5.391,5.389
				c0,2.94,2.009,5.126,5.173,5.126c0.631,0,1.253-0.245,1.856-0.424V24.94h-2.638v-2.025h5.295v7.358
				c-1.355,0.453-2.921,0.924-4.588,0.924c-5.058,0-7.999-2.921-7.999-7.368c0-4.522,2.976-7.481,8.178-7.481
				c1.3,0,2.675,0.462,4.051,0.754L115.672,19.344z"/>
			<path fill="#006B37" d="M124.558,16.649c3.477,0,5.211,1.215,5.211,3.674c0,1.809-1.037,3.053-2.959,3.486
				c1.074,0.338,1.375,1.065,1.818,2.148l1.969,4.946h-2.959l-1.602-4.305c-0.472-1.301-1.129-1.659-2.486-1.659h-0.886v5.964
				h-2.771V16.649H124.558z M122.664,22.923h1.441c1.855,0,2.854-0.791,2.854-2.148c0-1.488-0.979-2.148-3.052-2.148h-1.244V22.923z
				"/>
			<path fill="#006B37" d="M145.729,23.771c0,4.673-2.6,7.425-6.766,7.425c-4.163,0-6.726-2.752-6.726-7.425
				c0-4.654,2.563-7.424,6.726-7.424C143.129,16.347,145.729,19.137,145.729,23.771z M135.081,23.743
				c0,3.289,1.604,5.287,3.882,5.287c2.281,0,3.911-2.035,3.911-5.287c0-3.269-1.63-5.285-3.911-5.285
				C136.685,18.458,135.081,20.474,135.081,23.743z"/>
			<path fill="#006B37" d="M151.42,16.649v8.366c0,2.714,0.866,4.005,2.863,4.005c2.007,0,3.034-1.385,3.034-4.118v-8.253h2.658
				v8.291c0,4.156-1.923,6.256-5.721,6.256c-3.721,0-5.651-2.073-5.651-6.144v-8.403H151.42z"/>
			<path fill="#006B37" d="M167.832,16.649c3.657,0,5.446,1.394,5.446,4.447c0,2.723-1.904,4.39-5.342,4.39h-1.517v5.417h-2.817
				V16.649H167.832z M166.42,23.471h1.149c1.847,0,2.825-0.857,2.825-2.374c0-1.565-0.941-2.432-2.657-2.432h-1.317V23.471z"/>
			<path fill="#006B37" d="M184.453,16.649v2.053h-5.899v3.769h5.598v2.11h-5.598v4.165h6.105v2.157h-8.923V16.649H184.453z"/>
		</g>
		<path fill="#006B37" d="M16.027,118.632c-1.752-0.189-3.014-1.244-0.226-2.695c0,0,107.541-18.326,166.334-21.689
			c58.793-3.344,102.82-5.125,139.707,0.453l-13.85,10.514c0,0-29.981-2.656-53.648-3.58c-11.419-0.452-52.537-1.789-100.607,1.781
			c-41.541,3.09-106.542,9.421-134.354,14.764C19.382,118.179,17.516,118.782,16.027,118.632z"/>
		<g>
			<g>
				<path fill="#006B37" d="M86.163,36.811l0.188,0.679c0.179,0.471,0.292,0.642,0.981,0.604c6.85-0.246,11.948-5.238,11.948-8.009
					c0-3.241-3.251-7.331-16.753-7.331c-39.684,0-65.236,19.353-67.036,40.326c-2.365,27.71,36,41.626,68.544,32.487
					c7.443-2.102,11.626-4.89,11.73-6.125c0.102-1.187,0.064-2.016-0.124-2.883c-2.241,1.093-4.522,2.017-6.821,2.808
					c-26.456,9.007-58.133-2.054-55.947-27.606c1.564-18.392,23.763-33.938,47.375-33.73c1.413,0.01,2.713,0.085,3.842,0.301
					c3.384,0.584,4.655,2.11,4.638,3.863C88.689,33.722,87.662,35.427,86.163,36.811z"/>
				<path fill="#006B37" d="M132.933,45.857c0.755-1.611,0.51-2.865-1.017-3.26c-2.261-0.584-5.729-1.055-8.612-1.187
					c-30.639-1.385-52.007,17.958-52.601,32.43c-0.254,6.068,3.005,10.044,10.77,10.044c8.535,0,18.824-5.05,25.683-10.628
					c1.714-1.394,1.942-0.792,1.679,0.301c-1.311,5.145-0.848,9.591,3.729,9.817c5.135,0.227,11.647-2.638,13.812-3.787
					c0.188-0.113,0.454-0.772,0.264-2.11c-2.825-0.169-3.862-2.902-3.164-6.068C124.982,64.606,130.353,51.444,132.933,45.857z
					 M90.215,75.648c-2.637-0.122-4.146-1.998-4.053-4.598c0.472-11.325,16.169-25.75,32.15-23.338
					C110.811,66.642,98.128,76.006,90.215,75.648z"/>
				<path fill="#006B37" d="M171.741,49.758c0.226,0.414,0.368,0.443,0.906,0.216c2.383-1.026,5.06-3.25,5.135-5.172
					c0.094-2.412-2.94-4.099-11.514-4.476c-13.736-0.612-25.129,4.269-25.129,12.504c0,9.968,18.552,11.211,18.552,19.38
					c0,3.995-3.824,7.377-11.853,7.396c-5.454,0.038-10.214-1.96-10.214-6.313c0-2.79,2.244-6.106,10.524-8.273
					c-1.158-1.526-1.761-1.696-3.324-1.45c-9.554,1.601-15.002,5.709-15.217,10.684c-0.217,5.483,4.042,9.949,19.53,9.949
					c17.449,0,25.063-8.404,25.063-15.829c0-8.292-11.504-12.569-16.582-16.375c-1.602-1.206-2.279-2.468-2.279-3.581
					c-0.02-2.213,2.308-4.399,8.593-4.447c3.034-0.028,5.926,0.679,7.215,1.932c1.074,0.989,1.123,2.345,0.472,3.618L171.741,49.758
					z"/>
				<path fill="#006B37" d="M299.04,39.187c-15.216-0.698-27.049,11.55-29.037,24.025c-10.892,12.692-15.753,11.108-14.754,6.52
					c1.214-5.511,8.083-19.605,8.31-24.967c0.133-2.958-1.64-5.116-5.371-5.276c-6.198-0.283-16.395,6.614-25.723,15.15
					c-1.621,1.489-2.825,0.763-2.223-0.81c1.461-4.07,2.205-6.162,3.609-10.101c0.255-0.886,0.217-1.329-0.339-1.791
					c-2.009-1.771-3.798-2.675-5.466-2.713c-1.8-0.057-3.155,0.792-4.371,2.336c-8.074,7.933-24.261,31.978-29.782,31.733
					c-0.961-0.038-1.866-0.416-1.81-1.913c0.131-3.326,10.006-26.768,10.11-29.5c0.066-1.451-1.065-1.809-1.726-1.847
					c-2.458-0.094-13.699,4.126-15.017,5.428c-0.396,0.396-0.548,1.206-0.756,2.186c1.188-0.038,2.423,0.697,1.792,3.052
					c-1.471,5.428-8.83,22.745-8.972,26.485c-0.13,3.345,1.688,5.21,5.145,5.361c9.649,0.415,19.446-7.331,32.034-23.215
					c-3.23,7.227-5.445,13.285-5.634,17.779c-0.159,4.362,5.597,5.003,9.044,4.522c1.207-0.161,1.303-0.178,1.697-1.536
					c1.16-4.033,5.445-12.021,14.426-20.896c4.296-4.259,9.545-8.471,12.012-8.367c1.829,0.094,2.093,1.846,1.855,2.911
					c-0.895,4.249-4.004,11.533-6.076,17.873c-1.94,5.993,0.697,9.714,5.332,9.93c6.285,0.284,14.305-3.636,22.529-12.191
					c0.903,6.821,5.605,12.494,14.067,12.88c15.413,0.678,29.64-11.382,30.291-27.616C314.604,45.602,307.821,39.573,299.04,39.187z
					 M301.623,56.38c-2.056,10.855-9.817,19.061-16.96,18.704c-4.522-0.208-5.897-5.22-4.861-10.723
					c1.694-8.932,9.024-18.542,16.572-18.184C300.416,46.385,302.771,50.341,301.623,56.38z"/>
				<path fill="#006B37" d="M190.634,38.263c-1.132-0.302-1.49-0.528-1.132-2.355c0.48-2.469,1.132-5.333,1.772-7.689
					c0.979-3.561,2.921-5.559,8.384-6.144c4.447-0.508,10.008-0.885,13.569-2.449c-3.825,12.984-16.349,9.497-21.963,18.788
					L190.634,38.263z"/>
			</g>
		</g>
	</g>
</g>
</svg>
